STARTFONT 2.1
FONT misc.math2
SIZE 22 72 72
FONTBOUNDINGBOX 17 22 0 -4
STARTPROPERTIES 4
FONT_DESCENT 4
FONT_ASCENT 18
DEFAULT_CHAR 0
COPYRIGHT "Copyright (c) 1992 AT&T - All rights reserved."
ENDPROPERTIES
CHARS 114
STARTCHAR ch-0
ENCODING 0
SWIDTH 409 0
DWIDTH 9 0
BBX 9 22 0 -4
BITMAP
000000
000000
000000
000000
000000
020000
060000
050000
050000
0f0000
0e0000
f80000
1e0000
330000
210000
210000
600000
400000
000000
000000
000000
000000
ENDCHAR
STARTCHAR ch-1
ENCODING 1
SWIDTH 409 0
DWIDTH 9 0
BBX 9 22 0 -4
BITMAP
000000
000000
000000
000000
000000
020000
060000
840000
840000
cc0000
780000
1f0000
700000
f00000
a00000
a00000
600000
400000
000000
000000
000000
000000
ENDCHAR
STARTCHAR ch-2
ENCODING 2
SWIDTH 409 0
DWIDTH 9 0
BBX 9 22 0 -4
BITMAP
000030
000000
000000
000070
000018
000000
000002
3f0048
7f0000
c00000
c00004
c00016
c0007b
c00000
7f001f
3f0000
000060
000000
000020
000020
000000
000000
ENDCHAR
STARTCHAR ch-3
ENCODING 3
SWIDTH 409 0
DWIDTH 9 0
BBX 9 22 0 -4
BITMAP
00000d
000000
000000
000070
000018
000000
000000
fc0048
fe0067
030000
03007f
030040
030000
030000
fe0040
fc0010
000060
000000
00007f
000020
000000
000000
ENDCHAR
STARTCHAR ch-4
ENCODING 4
SWIDTH 363 0
DWIDTH 8 0
BBX 8 22 0 -4
BITMAP
000030
000000
000000
000070
020018
040000
040000
3e0048
7e0000
c80000
c8007e
d00016
d0007b
d00000
7e0003
3e0000
200060
400000
00007e
000020
000000
000000
ENDCHAR
STARTCHAR ch-5
ENCODING 5
SWIDTH 409 0
DWIDTH 9 0
BBX 9 22 0 -4
BITMAP
000030
000000
000000
000070
040018
040000
080004
fc0048
fe0000
0b0000
13007e
130016
13007b
230000
fe0050
fc0000
200060
400000
00007e
000020
000000
000000
ENDCHAR
STARTCHAR ch-6
ENCODING 6
SWIDTH 409 0
DWIDTH 9 0
BBX 9 22 0 -4
BITMAP
000030
000000
000000
000070
000018
000000
3f0004
7f0048
c00000
c00000
c0007e
c00016
c0007b
7f0000
3f0013
000000
ff0060
ff0000
00007e
000020
000000
000000
ENDCHAR
STARTCHAR ch-7
ENCODING 7
SWIDTH 409 0
DWIDTH 9 0
BBX 9 22 0 -4
BITMAP
000030
000000
000000
000070
000018
000000
fc0000
fe0048
030000
030000
030040
030016
03007b
fe0000
fc0040
000000
ff0060
ff0000
00003f
000020
000000
000000
ENDCHAR
STARTCHAR ch-8
ENCODING 8
SWIDTH 409 0
DWIDTH 9 0
BBX 9 22 0 -4
BITMAP
000030
000000
000000
000070
020018
020000
3f0000
7f0048
c40000
cc0000
c80003
d80016
d0007b
7f0000
3f0003
200000
ff0060
ff0000
40007c
000020
000000
000000
ENDCHAR
STARTCHAR ch-9
ENCODING 9
SWIDTH 409 0
DWIDTH 9 0
BBX 9 22 0 -4
BITMAP
000030
000000
000000
000070
020018
020000
fe0002
fe0048
070000
0f0000
0b0044
1b0016
13007b
fe0000
fc0058
200000
ff0060
ff0000
40003f
000020
000000
000000
ENDCHAR
STARTCHAR ch-10
ENCODING 10
SWIDTH 409 0
DWIDTH 9 0
BBX 9 22 0 -4
BITMAP
00000d
000000
000000
000070
000018
000000
3f0002
7f0048
c00078
c00000
c00007
c00040
c00000
7f0000
3f001b
180010
ff0060
ff0000
30007c
000020
000000
000000
ENDCHAR
STARTCHAR ch-11
ENCODING 11
SWIDTH 409 0
DWIDTH 9 0
BBX 9 22 0 -4
BITMAP
00000d
000000
000000
000070
000018
000000
fc0000
fe0048
030078
030000
030040
030040
030000
fe0000
fc0040
300010
ff0060
ff0000
60003f
000020
000000
000000
ENDCHAR
STARTCHAR ch-12
ENCODING 12
SWIDTH 454 0
DWIDTH 10 0
BBX 10 22 0 -4
BITMAP
000030
000000
000000
000070
000018
000000
000000
c18048
d18000
fd8000
fd8003
d18016
c1807b
7f0000
3e0003
000000
000060
000000
00007c
000020
000000
000000
ENDCHAR
STARTCHAR ch-13
ENCODING 13
SWIDTH 454 0
DWIDTH 10 0
BBX 10 22 0 -4
BITMAP
000030
000000
000000
000070
000018
000000
000000
c18048
c18000
dd8000
dd8051
c18016
c1807b
7f0000
3e0051
000000
000060
000000
00003e
000020
000000
000000
ENDCHAR
STARTCHAR ch-14
ENCODING 14
SWIDTH 454 0
DWIDTH 10 0
BBX 10 22 0 -4
BITMAP
000030
000000
000000
000070
000018
000000
000000
c18048
c98000
dd8000
dd8041
c98016
c1807b
7f0000
3e0041
000000
000060
000000
00003e
000020
000000
000000
ENDCHAR
STARTCHAR ch-15
ENCODING 15
SWIDTH 454 0
DWIDTH 10 0
BBX 10 22 0 -4
BITMAP
00000d
000000
000000
000070
000018
000000
ff8000
ff8048
c00078
c00000
c00049
c00040
c00000
ff8000
ff8049
000010
000060
000000
00003e
000020
000000
000000
ENDCHAR
STARTCHAR ch-16
ENCODING 16
SWIDTH 454 0
DWIDTH 10 0
BBX 10 22 0 -4
BITMAP
00000d
000000
000000
000070
000018
000000
ff8000
ff8048
018078
018000
018040
018040
018000
ff8000
ff8040
000010
000060
000000
00007f
000020
000000
000000
ENDCHAR
STARTCHAR ch-17
ENCODING 17
SWIDTH 454 0
DWIDTH 10 0
BBX 10 22 0 -4
BITMAP
00000d
000000
000000
000070
000018
000000
ff8000
ff8048
c00078
c00000
c00001
c00040
c00000
ff8000
ff8001
000010
ff8060
ff8000
00007f
000020
000000
000000
ENDCHAR
STARTCHAR ch-18
ENCODING 18
SWIDTH 409 0
DWIDTH 9 0
BBX 9 22 0 -4
BITMAP
000014
000000
000000
000070
000018
000000
ff0000
ff0048
030078
030000
030040
030040
030000
ff0000
ff0040
000010
ff0060
ff0000
00007f
000020
000000
000000
ENDCHAR
STARTCHAR ch-19
ENCODING 19
SWIDTH 454 0
DWIDTH 10 0
BBX 10 22 0 -4
BITMAP
00000d
000000
000000
000070
000018
000000
ff8000
ff8048
c18067
c18000
c18003
c18040
c18000
c18000
c18003
000010
000060
000000
00007f
000020
000000
000000
ENDCHAR
STARTCHAR ch-20
ENCODING 20
SWIDTH 454 0
DWIDTH 10 0
BBX 10 22 0 -4
BITMAP
000030
000000
000000
000070
000018
000000
c18000
c18048
c18000
c18000
c18041
c18016
c1807b
ff8000
ff8041
000000
000060
000000
000041
000020
000000
000000
ENDCHAR
STARTCHAR ch-21
ENCODING 21
SWIDTH 636 0
DWIDTH 14 0
BBX 14 22 0 -4
BITMAP
000030
000000
000000
000070
0f8018
3fe000
727000
623048
c21800
c21800
fff841
c21816
c2187b
623000
727041
3fe000
1fc060
000000
00007f
000020
000000
000000
ENDCHAR
STARTCHAR ch-22
ENCODING 22
SWIDTH 636 0
DWIDTH 14 0
BBX 14 22 0 -4
BITMAP
00000d
000000
000000
000070
0f8018
3fe000
70703f
603048
c01878
c01830
fff842
c01840
c01800
603078
707042
3fe010
1fc060
000030
000072
000020
000000
000040
ENDCHAR
STARTCHAR ch-23
ENCODING 23
SWIDTH 636 0
DWIDTH 14 0
BBX 14 22 0 -4
BITMAP
000030
000000
000000
000070
0f8018
3fe000
70703f
78f048
cd9800
c71830
c71840
cd9816
d8d87b
707078
707040
3fe000
1fc060
000030
000070
000020
000000
000040
ENDCHAR
STARTCHAR ch-24
ENCODING 24
SWIDTH 636 0
DWIDTH 14 0
BBX 14 22 0 -4
BITMAP
000030
000000
000000
000070
0f8018
3fe000
70703f
783048
cc1800
c61870
c3184d
c19816
c0d87b
607018
70704d
3fe000
1fc060
000070
000070
000020
000000
000040
ENDCHAR
STARTCHAR ch-25
ENCODING 25
SWIDTH 636 0
DWIDTH 14 0
BBX 14 22 0 -4
BITMAP
00000d
000000
000000
000070
0f8018
3fe000
70703f
603048
c01878
c71830
c7184c
c71840
c01800
603018
703041
3fe010
1fc060
000070
000070
000020
000000
000040
ENDCHAR
STARTCHAR ch-26
ENCODING 26
SWIDTH 636 0
DWIDTH 14 0
BBX 14 22 0 -4
BITMAP
00000d
000000
000000
000070
0f8018
3fe000
70703f
603048
c71878
cf9830
cd9840
cf9840
c71800
603018
703047
3fe010
1fc060
000030
000070
000020
000000
000040
ENDCHAR
STARTCHAR ch-27
ENCODING 27
SWIDTH 636 0
DWIDTH 14 0
BBX 14 22 0 -4
BITMAP
000030
000000
000000
000070
0f8018
3fe000
70703f
623048
ca9800
c71830
ddd847
c71816
ca987b
623018
70304f
3fe000
1fc060
000030
000070
000020
000000
000040
ENDCHAR
STARTCHAR ch-28
ENCODING 28
SWIDTH 636 0
DWIDTH 14 0
BBX 14 22 0 -4
BITMAP
000030
000000
000000
000070
0f8018
3fe000
70703f
603048
cf9800
cf9830
c0184a
cf9816
cf987b
603058
703047
3fe000
1fc060
000030
000070
000020
000000
000040
ENDCHAR
STARTCHAR ch-29
ENCODING 29
SWIDTH 636 0
DWIDTH 14 0
BBX 14 22 0 -4
BITMAP
000030
000000
000000
000070
0f8018
3fe000
70703f
603048
c01800
c01830
cf984f
cf9816
c0187b
603018
70304f
3fe000
1fc060
000030
000070
000020
000000
000040
ENDCHAR
STARTCHAR ch-30
ENCODING 30
SWIDTH 590 0
DWIDTH 13 0
BBX 13 22 0 -4
BITMAP
000030
000000
000000
000070
fff018
fff000
c6303f
c63048
c63000
fff030
fff040
c63016
c6307b
c63018
fff04f
fff000
000060
000030
000070
000020
000000
000040
ENDCHAR
STARTCHAR ch-31
ENCODING 31
SWIDTH 590 0
DWIDTH 13 0
BBX 13 22 0 -4
BITMAP
000030
000000
000000
000070
fff018
fff070
c0307f
c03048
c03000
fff030
fff046
c03016
c0307b
c03070
fff046
fff000
000060
000030
00007f
000020
000000
000000
ENDCHAR
STARTCHAR ch-32
ENCODING 32
SWIDTH 590 0
DWIDTH 13 0
BBX 13 22 0 -4
BITMAP
000030
000000
000000
000070
fff018
fff070
f0f07f
d9b048
cf3000
c63030
c63040
cf3016
d9b07b
f0f070
fff040
fff000
000060
000030
00007f
000020
000000
000000
ENDCHAR
STARTCHAR ch-33
ENCODING 33
SWIDTH 545 0
DWIDTH 12 0
BBX 12 22 -1 -4
BITMAP
000030
000000
000000
000070
fff018
fff070
c0307f
c03048
c03000
c63030
c6304f
c03016
c0307b
c03030
fff04f
fff000
000060
000070
00007f
000020
000000
000000
ENDCHAR
STARTCHAR ch-34
ENCODING 34
SWIDTH 409 0
DWIDTH 9 0
BBX 9 22 0 -4
BITMAP
000030
000000
000000
000070
000018
000070
c0007f
c00048
c00000
c00030
ff0040
ff0016
c0007b
c00030
c00040
c00000
000060
000030
00007f
000020
000000
000000
ENDCHAR
STARTCHAR ch-35
ENCODING 35
SWIDTH 409 0
DWIDTH 9 0
BBX 9 22 0 -4
BITMAP
000030
000000
000000
000070
000018
000000
030000
030048
030000
030000
ff0040
ff0016
03007b
030000
03007f
030000
030060
000000
000040
000020
000000
000000
ENDCHAR
STARTCHAR ch-36
ENCODING 36
SWIDTH 500 0
DWIDTH 11 0
BBX 11 22 0 -4
BITMAP
000030
000000
000000
000070
000018
000000
ffc000
ffc048
0c0000
0c0000
0c0003
0c0016
0c007b
0c0000
0c007f
0c0000
0c0060
000000
000003
000020
000000
000000
ENDCHAR
STARTCHAR ch-37
ENCODING 37
SWIDTH 318 0
DWIDTH 7 0
BBX 7 22 0 -4
BITMAP
000030
000000
000000
000070
000018
000000
0c0000
0c0048
0c0000
0c0040
0c000c
0c0016
0c007b
0c0000
0c000c
fc0000
fc0060
000000
00000c
000020
000000
000000
ENDCHAR
STARTCHAR ch-38
ENCODING 38
SWIDTH 272 0
DWIDTH 6 0
BBX 6 22 0 -4
BITMAP
000030
000000
000000
000070
000018
000000
c00000
c00048
c00000
c00000
f8000c
f80016
c0007b
c00000
c0000c
c00000
000060
000000
00000c
000020
000000
000000
ENDCHAR
STARTCHAR ch-39
ENCODING 39
SWIDTH 272 0
DWIDTH 6 0
BBX 6 22 0 -4
BITMAP
000030
000000
000000
000070
000018
000000
c00000
c00048
f80000
f80000
c00040
c00016
f8007b
f80000
c00078
c00000
000060
000000
000040
000020
000000
000000
ENDCHAR
STARTCHAR ch-40
ENCODING 40
SWIDTH 409 0
DWIDTH 9 0
BBX 9 22 0 -4
BITMAP
000030
000000
000000
000070
000018
000000
c00000
c00048
ff0000
ff0000
c00078
c00016
ff007b
ff0000
c00040
c00000
000060
000000
000040
000020
000000
000000
ENDCHAR
STARTCHAR ch-41
ENCODING 41
SWIDTH 590 0
DWIDTH 13 0
BBX 13 22 0 -4
BITMAP
00000d
000000
000000
000070
000018
000000
cc0000
cc0048
cc0078
cc0000
cff07f
cff040
cc0000
cc0000
cc0040
cc0010
cc0060
000000
000040
000020
000000
000000
ENDCHAR
STARTCHAR ch-42
ENCODING 42
SWIDTH 636 0
DWIDTH 14 0
BBX 14 22 0 -4
BITMAP
00000d
000000
000000
000070
000018
000000
ccc000
ccc048
ccc078
ccc000
ccf84c
ccf840
ccc000
ccc070
ccc04f
ccc010
ccc060
000000
00004c
000020
000000
000000
ENDCHAR
STARTCHAR ch-43
ENCODING 43
SWIDTH 590 0
DWIDTH 13 0
BBX 13 22 0 -4
BITMAP
00000d
000000
000000
000070
000018
000000
cc0000
cc0048
cff035
cff040
cc004c
cc0016
cff000
cff078
cc004c
cc0010
cc0060
000040
00004c
000020
000000
000040
ENDCHAR
STARTCHAR ch-44
ENCODING 44
SWIDTH 409 0
DWIDTH 9 0
BBX 9 22 0 -4
BITMAP
00000d
000000
000000
000070
000018
000000
c30000
c60048
c60067
c60000
ff004f
ff0040
cc0000
cc0000
d8004c
d80010
100060
000070
00004c
000020
000000
000000
ENDCHAR
STARTCHAR ch-45
ENCODING 45
SWIDTH 409 0
DWIDTH 9 0
BBX 9 22 0 -4
BITMAP
000030
000000
000000
000070
000018
000000
c18000
c30048
ff0000
ff0000
c60046
c60016
ff007b
ff0000
cc007f
d80000
180060
000000
000058
000020
000000
000000
ENDCHAR
STARTCHAR ch-46
ENCODING 46
SWIDTH 409 0
DWIDTH 9 0
BBX 9 22 0 -4
BITMAP
000030
000000
000000
000070
000018
000000
cc0000
cc0048
cc0000
cc0000
cf807f
cf8016
cc807b
cc8000
cd8046
cd8000
cd8060
000000
00004c
000020
000000
000000
ENDCHAR
STARTCHAR ch-47
ENCODING 47
SWIDTH 409 0
DWIDTH 9 0
BBX 9 22 0 -4
BITMAP
00000d
000000
000000
000070
000018
000000
cc0000
cc0048
cf8078
cf8000
cc804c
cc8040
cf8000
cf8000
cd804f
cd8010
cd8060
000000
00004d
000020
000000
000000
ENDCHAR
STARTCHAR ch-48
ENCODING 48
SWIDTH 409 0
DWIDTH 9 0
BBX 9 22 0 -4
BITMAP
00000d
000000
000000
000070
000018
000000
000000
070048
090078
030000
07004f
0e0040
f80000
0e0000
07004c
030010
090060
070000
00004d
000020
000000
000000
ENDCHAR
STARTCHAR ch-49
ENCODING 49
SWIDTH 409 0
DWIDTH 9 0
BBX 9 22 0 -4
BITMAP
000030
000000
000000
000070
000018
000000
000000
e00048
900000
c00000
c00009
700016
0f007b
700000
c0000e
c00000
900060
e00000
000007
000020
000000
000000
ENDCHAR
STARTCHAR ch-50
ENCODING 50
SWIDTH 409 0
DWIDTH 9 0
BBX 9 22 0 -4
BITMAP
000030
000000
000000
000070
000018
000000
000000
010048
070000
1b0000
630010
830016
63007b
1b0000
070070
010000
000060
000000
000040
000020
000000
000000
ENDCHAR
STARTCHAR ch-51
ENCODING 51
SWIDTH 409 0
DWIDTH 9 0
BBX 9 22 0 -4
BITMAP
00000d
000000
000000
000070
000018
000000
000000
800048
e00078
d80000
c60007
c10040
c60000
d80000
e00003
800010
000060
000000
000007
000020
000000
000000
ENDCHAR
STARTCHAR ch-52
ENCODING 52
SWIDTH 409 0
DWIDTH 9 0
BBX 9 22 0 -4
BITMAP
000030
000000
000000
000070
000018
000000
000000
010048
070000
1b0000
630060
830016
63007b
1b0000
070041
010000
000060
ff0000
ff0060
000020
000000
000000
ENDCHAR
STARTCHAR ch-53
ENCODING 53
SWIDTH 409 0
DWIDTH 9 0
BBX 9 22 0 -4
BITMAP
000030
000000
000000
000070
000018
000000
000000
800048
e00000
d80000
c60007
c10016
c6007b
d80000
e00003
800000
000060
ff0000
ff0007
000020
000000
000000
ENDCHAR
STARTCHAR ch-54
ENCODING 54
SWIDTH 772 0
DWIDTH 17 0
BBX 17 22 0 -4
BITMAP
000030
000000
000000
000070
000018
000000
000000
000048
000000
600600
900f60
9fff16
900f7b
600600
000041
000000
000060
000000
000060
000020
000000
000000
ENDCHAR
STARTCHAR ch-55
ENCODING 55
SWIDTH 772 0
DWIDTH 17 0
BBX 17 22 0 -4
BITMAP
000030
000000
000000
000070
000018
000000
000000
000048
000000
600600
f00900
fff916
f0097b
60060f
00001f
000000
000060
000006
000000
000020
000000
000000
ENDCHAR
STARTCHAR ch-56
ENCODING 56
SWIDTH 590 0
DWIDTH 13 0
BBX 13 22 0 -4
BITMAP
000030
000000
000000
000070
000018
000000
000000
000048
000000
006000
009000
ff9016
00907b
006009
00007f
000000
000060
000006
000000
000020
000000
000000
ENDCHAR
STARTCHAR ch-57
ENCODING 57
SWIDTH 590 0
DWIDTH 13 0
BBX 13 22 0 -4
BITMAP
000030
000000
000000
000070
000018
060000
060000
060048
060000
000000
f0f000
f0f016
00007b
060010
06007f
060000
060060
000060
000000
000020
000000
000000
ENDCHAR
STARTCHAR ch-58
ENCODING 58
SWIDTH 409 0
DWIDTH 9 0
BBX 9 22 0 -4
BITMAP
00000d
000000
000000
000070
000018
000000
ff0006
ff0048
180078
180000
180006
180040
180000
180070
180070
180010
180060
000000
000006
000020
000000
000000
ENDCHAR
STARTCHAR ch-59
ENCODING 59
SWIDTH 363 0
DWIDTH 8 0
BBX 8 22 0 -4
BITMAP
000030
000000
000000
000070
000018
c60000
c60000
6c0048
6c0000
280000
380018
100016
00007b
000000
fe0018
fe0000
000060
000000
000018
000020
000000
000000
ENDCHAR
STARTCHAR ch-60
ENCODING 60
SWIDTH 363 0
DWIDTH 8 0
BBX 8 22 0 -4
BITMAP
000030
000000
000000
000070
000018
fe0000
fe0046
000048
000000
100000
38006c
280016
6c007b
6c0000
c60010
c60000
000060
000000
00007e
000020
000000
000000
ENDCHAR
STARTCHAR ch-61
ENCODING 61
SWIDTH 363 0
DWIDTH 8 0
BBX 8 22 0 -4
BITMAP
00000d
000000
000000
000070
000018
fe0000
fe007e
000048
000067
c60000
c60000
6c0040
6c0000
280000
380028
100010
000060
000000
000046
000020
000000
000000
ENDCHAR
STARTCHAR ch-62
ENCODING 62
SWIDTH 454 0
DWIDTH 10 0
BBX 10 22 0 -4
BITMAP
000030
000000
000000
000070
000018
c00000
c0007e
c00048
f00000
dc0000
c40000
c60016
c2007b
ff8000
ff806c
000000
000060
000000
000038
000020
000000
000000
ENDCHAR
STARTCHAR ch-63
ENCODING 63
SWIDTH 454 0
DWIDTH 10 0
BBX 10 22 0 -4
BITMAP
000030
000000
000000
000070
000018
008000
018040
038048
058000
098000
118070
218016
41807b
ff8000
ff8046
000000
000060
000000
00007f
000020
000000
000000
ENDCHAR
STARTCHAR ch-64
ENCODING 64
SWIDTH 636 0
DWIDTH 14 0
BBX 14 22 0 -4
BITMAP
00000d
000000
000000
020070
070018
070000
0d8000
1dc048
18c078
306000
306005
603040
603000
c01800
c01821
000010
000060
000000
00007f
000020
000000
000000
ENDCHAR
STARTCHAR ch-65
ENCODING 65
SWIDTH 636 0
DWIDTH 14 0
BBX 14 22 0 -4
BITMAP
000030
000000
000000
c01870
c01818
603000
603007
306048
306000
18c040
1dc018
0d8016
07007b
070060
020060
000000
000060
000018
000040
000020
000000
000000
ENDCHAR
STARTCHAR ch-66
ENCODING 66
SWIDTH 454 0
DWIDTH 10 0
BBX 10 22 0 -4
BITMAP
00000d
000000
000000
000070
000018
1c0018
7f0060
770048
e38078
c18060
c18030
c18040
c18000
c18040
c1800d
c18010
c18060
c18000
c18002
000020
000000
000000
ENDCHAR
STARTCHAR ch-67
ENCODING 67
SWIDTH 454 0
DWIDTH 10 0
BBX 10 22 0 -4
BITMAP
000030
000000
000000
000070
000018
c18000
c1801c
c18048
c18000
c18000
c18063
c18016
c1807b
c18000
c18041
e38000
770060
7f0000
1c0041
000020
000000
000000
ENDCHAR
STARTCHAR ch-68
ENCODING 68
SWIDTH 409 0
DWIDTH 9 0
BBX 9 22 0 -4
BITMAP
00000d
000000
000000
000070
000018
180000
180041
3c0048
660078
660000
c30041
c30040
660000
660000
3c0041
180010
180060
000000
000041
000020
000000
000000
ENDCHAR
STARTCHAR ch-69
ENCODING 69
SWIDTH 181 0
DWIDTH 4 0
BBX 4 22 0 -4
BITMAP
00000d
000000
000000
000070
000018
000000
000018
000048
000078
e00000
e00066
e00040
000000
000000
000043
000010
000060
000000
00003c
000020
000000
000000
ENDCHAR
STARTCHAR ch-70
ENCODING 70
SWIDTH 500 0
DWIDTH 11 0
BBX 11 22 0 -4
BITMAP
00000d
000000
000000
000070
000018
000000
000000
0c0048
0c0078
ffc000
7f8000
1e0040
1e0000
3f0000
210060
000010
000060
000000
000000
000020
000000
000000
ENDCHAR
STARTCHAR ch-71
ENCODING 71
SWIDTH 454 0
DWIDTH 10 0
BBX 10 22 0 -4
BITMAP
000030
000000
000000
000070
000018
000000
000000
c98048
490000
3e0000
3e000c
ff8016
3e007b
3e0000
49001e
c98000
000060
000000
000021
000020
000000
000000
ENDCHAR
STARTCHAR ch-72
ENCODING 72
SWIDTH 454 0
DWIDTH 10 0
BBX 10 22 0 -4
BITMAP
000030
000000
000000
000070
000018
000000
c18000
e38048
d58000
d58000
dd8049
d58016
d5807b
e38000
c1807f
000000
000060
000000
000049
000020
000000
000000
ENDCHAR
STARTCHAR ch-73
ENCODING 73
SWIDTH 409 0
DWIDTH 9 0
BBX 9 22 0 -4
BITMAP
00000d
000000
000000
000070
000018
000000
c10000
e30048
d60078
d40000
dc0055
d40040
d60000
e30000
c10055
000010
000060
000000
000041
000020
000000
000000
ENDCHAR
STARTCHAR ch-74
ENCODING 74
SWIDTH 409 0
DWIDTH 9 0
BBX 9 22 0 -4
BITMAP
000030
000000
000000
000070
000018
000000
830000
c70048
6b0000
2b0000
3b0056
2b0016
6b007b
c70000
830054
000000
000060
000000
000041
000020
000000
000000
ENDCHAR
STARTCHAR ch-75
ENCODING 75
SWIDTH 409 0
DWIDTH 9 0
BBX 9 22 0 -4
BITMAP
000030
000000
000000
000070
000018
800000
c00000
600048
300000
100000
18006b
6c0016
46007b
c30000
81002b
000000
000060
000000
000003
000020
000000
000000
ENDCHAR
STARTCHAR ch-76
ENCODING 76
SWIDTH 409 0
DWIDTH 9 0
BBX 9 22 0 -4
BITMAP
00000d
000000
000000
000070
000018
010000
030000
060048
0c0078
0c0000
180030
360040
620000
c30000
81006c
000010
000060
000000
000001
000020
000000
000000
ENDCHAR
STARTCHAR ch-77
ENCODING 77
SWIDTH 409 0
DWIDTH 9 0
BBX 9 22 0 -4
BITMAP
000030
000000
000000
000070
000018
000000
000001
f10048
990000
8f0000
00000c
000016
ff007b
ff0000
000036
000000
000060
000000
000001
000020
000000
000000
ENDCHAR
STARTCHAR ch-78
ENCODING 78
SWIDTH 454 0
DWIDTH 10 0
BBX 10 22 0 -4
BITMAP
00000d
000000
000000
000070
000018
000000
000000
c18048
220078
360000
1c0019
1c0040
080000
080000
080000
000010
000060
000000
000000
000020
000000
000000
ENDCHAR
STARTCHAR ch-79
ENCODING 79
SWIDTH 454 0
DWIDTH 10 0
BBX 10 22 0 -4
BITMAP
000030
000000
000000
000070
000018
000000
000000
080048
080000
080000
1c0022
1c0016
36007b
220000
c1801c
000000
000060
000000
000008
000020
000000
000000
ENDCHAR
STARTCHAR ch-80
ENCODING 80
SWIDTH 454 0
DWIDTH 10 0
BBX 10 22 0 -4
BITMAP
00000d
000000
000000
000070
000018
000000
1f8000
3f8048
600078
cf8000
d80008
d00040
d80000
cf8000
60001c
3f8010
1f8060
000000
000041
000020
000000
000000
ENDCHAR
STARTCHAR ch-81
ENCODING 81
SWIDTH 454 0
DWIDTH 10 0
BBX 10 22 0 -4
BITMAP
000030
000000
000000
000070
000018
000000
fc0000
fe0048
030000
f98000
0d8060
058016
0d807b
f98000
030050
fe0000
fc0060
000000
000060
000020
000000
000000
ENDCHAR
STARTCHAR ch-82
ENCODING 82
SWIDTH 454 0
DWIDTH 10 0
BBX 10 22 0 -4
BITMAP
000030
000000
000000
000070
000018
1c0000
3e0000
630048
c18000
dd8000
d58003
d58016
d5807b
d58000
d58005
000000
000060
000000
000003
000020
000000
000000
ENDCHAR
STARTCHAR ch-83
ENCODING 83
SWIDTH 454 0
DWIDTH 10 0
BBX 10 22 0 -4
BITMAP
000030
000000
000000
000070
000018
000000
d5801c
d58048
d58000
d58000
d58041
dd8016
c1807b
630000
3e0055
1c0000
000060
000000
000055
000020
000000
000000
ENDCHAR
STARTCHAR ch-84
ENCODING 84
SWIDTH 454 0
DWIDTH 10 0
BBX 10 22 0 -4
BITMAP
000030
000000
000000
000070
000018
000000
000000
080048
080000
3e0000
7f0055
eb8016
c9807b
c98000
c9805d
000000
000060
000000
00003e
000020
000000
000000
ENDCHAR
STARTCHAR ch-85
ENCODING 85
SWIDTH 545 0
DWIDTH 12 0
BBX 12 22 0 -4
BITMAP
00000d
000000
000000
000070
000018
000000
318000
318048
ffe078
ffe000
318008
318040
ffe000
ffe000
31806b
318010
000060
000000
000049
000020
000000
000000
ENDCHAR
STARTCHAR ch-86
ENCODING 86
SWIDTH 454 0
DWIDTH 10 0
BBX 10 22 0 -4
BITMAP
000030
000000
000000
000070
000018
018000
070000
1c0048
700000
c30000
c3007f
700016
1c007b
070000
018031
000000
000060
000060
000031
000020
000000
000000
ENDCHAR
STARTCHAR ch-87
ENCODING 87
SWIDTH 454 0
DWIDTH 10 0
BBX 10 22 0 -4
BITMAP
000030
000000
000000
000070
000018
c00000
700001
1c0048
070000
618000
618070
070016
1c007b
700000
c00070
000000
000060
000000
000001
000020
000000
000000
ENDCHAR
STARTCHAR ch-88
ENCODING 88
SWIDTH 772 0
DWIDTH 17 0
BBX 17 22 0 -4
BITMAP
000030
000000
000000
000070
000018
000000
000040
0c6348
18c600
318c00
631807
842016
63187b
318c00
18c607
0e6300
000060
000000
000040
000020
000000
000000
ENDCHAR
STARTCHAR ch-89
ENCODING 89
SWIDTH 772 0
DWIDTH 17 0
BBX 17 22 0 -4
BITMAP
00000d
000000
000000
000070
000018
000000
000000
c63048
631878
318c63
18c618
042140
18c600
318c18
631804
c67010
000060
00000c
000018
000020
000000
000000
ENDCHAR
STARTCHAR ch-90
ENCODING 90
SWIDTH 409 0
DWIDTH 9 0
BBX 9 22 0 -4
BITMAP
000030
000000
000000
000070
000018
0f0000
780000
c00048
780000
0f0030
000063
ff0016
ff007b
000046
f00004
1e0000
030060
1e000c
f00063
000020
000000
000000
ENDCHAR
STARTCHAR ch-91
ENCODING 91
SWIDTH 409 0
DWIDTH 9 0
BBX 9 22 0 -4
BITMAP
00000d
000000
000000
000070
000018
f00000
1e000f
030048
1e0078
f00000
000078
ff0040
ff0000
000000
0f007f
780010
c00060
780000
0f0070
000020
000000
000000
ENDCHAR
STARTCHAR ch-92
ENCODING 92
SWIDTH 409 0
DWIDTH 9 0
BBX 9 22 0 -4
BITMAP
000030
000000
000000
000070
000018
000000
030070
0e0048
380000
e30000
86001e
1c0016
70007b
c00000
70007f
1c0000
060060
030000
00000f
000020
000000
000000
ENDCHAR
STARTCHAR ch-93
ENCODING 93
SWIDTH 409 0
DWIDTH 9 0
BBX 9 22 0 -4
BITMAP
00000d
000000
000000
000070
000018
000000
c00000
700048
1c0078
c70000
610038
380040
0e0000
030000
0e001c
380010
600060
c00000
000070
000020
000000
000000
ENDCHAR
STARTCHAR ch-94
ENCODING 94
SWIDTH 409 0
DWIDTH 9 0
BBX 9 22 0 -4
BITMAP
00000d
000000
000000
000070
060018
040000
0d0000
390048
e30078
0e0000
f8001c
0e0040
030000
010000
010038
000010
000060
000000
00000e
000020
000000
000000
ENDCHAR
STARTCHAR ch-95
ENCODING 95
SWIDTH 409 0
DWIDTH 9 0
BBX 9 22 0 -4
BITMAP
000030
000000
000000
000070
600018
200000
b00004
9c0048
c70000
700000
0f0063
700016
c0007b
800000
80000e
000000
000060
000000
000001
000020
000000
000000
ENDCHAR
STARTCHAR ch-96
ENCODING 96
SWIDTH 409 0
DWIDTH 9 0
BBX 9 22 0 -4
BITMAP
00000d
000000
000000
000070
000018
100000
110020
110048
130078
1e0000
f80047
1e0040
f30000
190000
1d0070
140010
160060
100000
000000
000020
000000
000000
ENDCHAR
STARTCHAR ch-97
ENCODING 97
SWIDTH 409 0
DWIDTH 9 0
BBX 9 22 0 -4
BITMAP
000030
000000
000000
000070
000018
080000
880010
880048
c80000
780000
1f0013
780016
cf007b
9c0000
b8001e
280000
c80060
080000
00001d
000020
000000
000000
ENDCHAR
STARTCHAR ch-98
ENCODING 98
SWIDTH 454 0
DWIDTH 10 0
BBX 10 22 0 -4
BITMAP
000030
000000
000000
000070
060018
060000
ff8008
ff8048
cc0000
cc0000
cc0048
d80016
d8007b
ff8000
ff8078
180000
ff8060
ff8000
300038
000020
000000
000000
ENDCHAR
STARTCHAR ch-99
ENCODING 99
SWIDTH 409 0
DWIDTH 9 0
BBX 9 22 0 -4
BITMAP
00000d
000000
000000
000070
0c0018
0c0000
ff0006
ff0048
1b0078
1b0000
33004c
330040
330000
ff0000
ff0058
600010
ff0060
ff0000
c0007f
000020
000000
000000
ENDCHAR
STARTCHAR ch-100
ENCODING 100
SWIDTH 454 0
DWIDTH 10 0
BBX 10 22 0 -4
BITMAP
00000d
000000
000000
000070
000018
000000
ff800c
ff8048
c00078
c00000
c0001b
c00040
c00000
ff8000
ff8033
0c0010
ff8060
ff8000
30007f
300020
000000
000000
ENDCHAR
STARTCHAR ch-101
ENCODING 101
SWIDTH 409 0
DWIDTH 9 0
BBX 9 22 0 -4
BITMAP
00000d
000000
000000
000070
000018
000000
ff0000
ff0048
030078
030000
030040
030040
030000
ff0000
ff0040
180010
ff0060
ff0000
60007f
600020
000000
000000
ENDCHAR
STARTCHAR ch-102
ENCODING 102
SWIDTH 409 0
DWIDTH 9 0
BBX 9 22 0 -4
BITMAP
00000d
000000
000000
000070
000018
010000
070000
1c0048
700078
c00000
700003
1c0040
070000
010000
180003
fa0010
920060
be0000
30007f
000020
000000
000000
ENDCHAR
STARTCHAR ch-103
ENCODING 103
SWIDTH 409 0
DWIDTH 9 0
BBX 9 22 0 -4
BITMAP
000030
000000
000000
000070
000018
800000
e00001
380048
0e0000
030000
0e0070
380016
e0007b
800000
18001c
fa0000
920060
be0000
300018
000020
000000
000000
ENDCHAR
STARTCHAR ch-104
ENCODING 104
SWIDTH 409 0
DWIDTH 9 0
BBX 9 22 0 -4
BITMAP
000030
000000
000000
000070
000018
010000
030000
060048
1c0000
f00000
1c000e
060016
03007b
010000
180038
fa0000
920060
be0000
300018
000020
000000
000000
ENDCHAR
STARTCHAR ch-105
ENCODING 105
SWIDTH 409 0
DWIDTH 9 0
BBX 9 22 0 -4
BITMAP
000030
000000
000000
000070
000018
800000
c00001
600048
380000
0f0000
38001c
600016
c0007b
800000
180006
fa0000
920060
be0000
300018
000020
000000
000000
ENDCHAR
STARTCHAR ch-106
ENCODING 106
SWIDTH 409 0
DWIDTH 9 0
BBX 9 22 0 -4
BITMAP
000030
000000
000000
000070
000018
040000
080000
090048
0f0000
1b0000
730038
930016
73007b
1b0000
270060
210000
400060
000000
000018
000020
000000
000000
ENDCHAR
STARTCHAR ch-107
ENCODING 107
SWIDTH 409 0
DWIDTH 9 0
BBX 9 22 0 -4
BITMAP
00000d
000000
000000
000070
000018
000000
010004
820048
e20078
dc0000
c6000f
c90040
ce0000
d80000
e80013
900010
100060
000000
000027
000020
000000
000000
ENDCHAR
STARTCHAR ch-108
ENCODING 108
SWIDTH 409 0
DWIDTH 9 0
BBX 9 22 0 -4
BITMAP
000030
000000
000000
000070
000018
000000
040000
090048
0f0000
1b0000
730062
930016
73007b
1b0000
270049
210000
200060
ff0000
ff8068
000020
000000
000000
ENDCHAR
STARTCHAR ch-109
ENCODING 109
SWIDTH 409 0
DWIDTH 9 0
BBX 9 22 0 -4
BITMAP
000030
000000
000000
000070
000018
000000
020000
820048
e40000
dc0000
c6000f
c90016
ce007b
d80000
f00013
900000
200060
ff0000
ff0027
000020
000000
000000
ENDCHAR
STARTCHAR ch-110
ENCODING 110
SWIDTH 136 0
DWIDTH 3 0
BBX 3 22 0 -4
BITMAP
000030
000000
000000
000070
000018
000000
c00000
c00048
000000
000000
c00064
c00016
00007b
000000
c00049
c00000
000060
000000
000070
000020
000000
000000
ENDCHAR
STARTCHAR ch-111
ENCODING 111
SWIDTH 500 0
DWIDTH 11 0
BBX 11 22 0 -4
BITMAP
000030
000000
000000
000070
000018
000000
000000
000048
000000
000000
000000
000016
00007b
ccc000
ccc040
000000
000060
000000
000040
000020
000000
000000
ENDCHAR
STARTCHAR ch-112
ENCODING 112
SWIDTH 500 0
DWIDTH 11 0
BBX 11 22 0 -4
BITMAP
000030
000000
000000
000070
000018
000000
00c000
00c048
000000
000000
0c0000
0c0016
00007b
000000
c00000
c00000
000060
000040
00004c
000020
000000
000000
ENDCHAR
STARTCHAR ch-113
ENCODING 113
SWIDTH 500 0
DWIDTH 11 0
BBX 11 22 0 -4
BITMAP
000030
000000
000000
000070
000018
000000
c00000
c00048
000000
000040
0c0000
0c0016
00007b
000000
00c00c
00c000
000060
000000
000040
000020
000000
000000
ENDCHAR
ENDFONT
